<svg width="24" height="24" viewBox="0 0 24 24" fill="none" xmlns="http://www.w3.org/2000/svg">
<path d="M24 14.7163V24H18.854V15.3337C18.854 13.1548 18.112 11.674 16.25 11.674C14.826 11.674 13.986 12.6766 13.611 13.6414C13.476 13.9889 13.435 14.4755 13.435 14.9559V23.9989H8.29401C8.29401 23.9989 8.36302 9.32661 8.29401 7.80705H13.436V10.1021C13.429 10.1209 13.414 10.1366 13.407 10.1575H13.436V10.1021C14.123 8.99905 15.34 7.42712 18.073 7.42712C21.465 7.42717 24 9.74105 24 14.7163ZM2.91098 0C1.152 0 0 1.2077 0 2.80053C0 4.35045 1.11802 5.59897 2.84498 5.59897H2.87599C4.67397 5.59897 5.78798 4.35045 5.78798 2.80053C5.75299 1.2077 4.67402 0 2.91098 0ZM0.307024 23.9999H5.45004V7.80605H0.307024V23.9999Z" fill="#0E0A18"/>
</svg>
