<svg width="149" height="80" viewBox="0 0 149 80" fill="none" xmlns="http://www.w3.org/2000/svg">
<path d="M149 0H0V80H149V0Z" fill="#0E0A18"/>
<path d="M12.3929 13.21H18.0053V14.7189H16.0965V21.4092H18.0053V22.9181H12.3929V21.4092H14.2447V14.7189H12.3929V13.21Z" fill="#E8DFE0"/>
<path d="M21.9369 15.7153L22.0509 16.7117C22.3073 16.3416 22.6207 16.0854 22.991 15.8861C23.3614 15.6868 23.7602 15.6014 24.2161 15.6014C24.5864 15.6014 24.9283 15.6584 25.2132 15.7722C25.4981 15.8861 25.783 16.0569 26.0109 16.2847C26.2388 16.5125 26.4098 16.8256 26.5237 17.1957C26.6377 17.5658 26.6947 18.0213 26.6947 18.5338V22.9751H24.8428V18.5053C24.8428 18.2206 24.8143 17.9929 24.7574 17.7936C24.7004 17.5943 24.5864 17.452 24.4725 17.3665C24.3585 17.2811 24.2161 17.1957 24.0451 17.1388C23.8742 17.0818 23.6748 17.0818 23.4753 17.0818C23.162 17.0818 22.8771 17.1388 22.6776 17.2811C22.4782 17.4235 22.2788 17.5943 22.1363 17.7936V22.9181H20.2845V15.7153H21.9369Z" fill="#E8DFE0"/>
<path d="M31.8797 13.9502V15.7153H34.5862V17.0819H31.8797V20.1851C31.8797 20.4413 31.9082 20.669 31.9652 20.8399C32.0222 21.0107 32.1077 21.153 32.2216 21.2669C32.3356 21.3808 32.478 21.4377 32.6205 21.4947C32.7629 21.5516 32.9623 21.5516 33.1618 21.5516C33.3042 21.5516 33.4467 21.5516 33.5891 21.5231C33.7316 21.4947 33.874 21.4947 34.0165 21.4662C34.1589 21.4377 34.2729 21.4377 34.3868 21.4093C34.5008 21.3808 34.6147 21.3523 34.7002 21.3523L34.8711 22.6335C34.7287 22.7189 34.5862 22.7758 34.4153 22.8327C34.2444 22.8897 34.0449 22.9466 33.874 22.9751C33.7031 23.0036 33.4752 23.032 33.2757 23.0605C33.0763 23.089 32.8484 23.089 32.649 23.089C32.2501 23.089 31.8797 23.032 31.5664 22.9182C31.253 22.8043 30.9681 22.6619 30.7402 22.4342C30.5122 22.2064 30.3413 21.9217 30.1989 21.5801C30.0564 21.2384 29.9994 20.8399 29.9994 20.3559V17.0819H28.347V15.7153H29.9994V13.9502H31.8797Z" fill="#E8DFE0"/>
<path d="M40.1702 23.0605C39.6004 23.0605 39.1161 22.9751 38.6602 22.7758C38.2044 22.5765 37.8055 22.3488 37.4922 22.0356C37.1788 21.7224 36.9224 21.3523 36.7514 20.9253C36.5805 20.4982 36.495 20.0427 36.495 19.5587V19.3025C36.495 18.7616 36.5805 18.2491 36.7514 17.7936C36.9224 17.3381 37.1788 16.9395 37.4922 16.6263C37.8055 16.3132 38.1759 16.0285 38.6032 15.8577C39.0306 15.6868 39.4864 15.573 39.9992 15.573C40.512 15.573 40.9964 15.6584 41.3952 15.8292C41.7941 16 42.1359 16.2278 42.4208 16.5409C42.7057 16.8541 42.9052 17.2242 43.0761 17.6512C43.2185 18.0783 43.304 18.5623 43.304 19.1032V19.9288H38.4038C38.4323 20.1851 38.5178 20.3843 38.6317 20.6121C38.7457 20.8399 38.8881 20.9822 39.0591 21.1246C39.23 21.2669 39.4294 21.3808 39.6289 21.4662C39.8283 21.5516 40.0847 21.5801 40.3411 21.5801C40.512 21.5801 40.7115 21.5516 40.8824 21.5231C41.0533 21.4947 41.2243 21.4377 41.3952 21.3523C41.5662 21.2669 41.7086 21.21 41.851 21.0961C41.9935 20.9822 42.1075 20.8683 42.2214 20.726L43.1616 21.7224C43.0476 21.8932 42.9052 22.0356 42.7057 22.2064C42.5063 22.3772 42.3069 22.4911 42.0505 22.6335C41.7941 22.7758 41.5092 22.8612 41.2243 22.9181C40.8539 23.032 40.5405 23.0605 40.1702 23.0605ZM39.9707 17.0819C39.7713 17.0819 39.5719 17.1103 39.401 17.1957C39.23 17.2811 39.0876 17.3665 38.9451 17.5089C38.8027 17.6512 38.7172 17.8221 38.6032 17.9929C38.4893 18.1637 38.4608 18.3915 38.4038 18.6477H41.4522V18.5053C41.4522 18.3061 41.3952 18.1352 41.3382 17.9644C41.2813 17.7936 41.1673 17.6512 41.0533 17.5089C40.9394 17.3665 40.7684 17.2811 40.5975 17.1957C40.4266 17.1103 40.1987 17.0819 39.9707 17.0819Z" fill="#E8DFE0"/>
<path d="M50.056 15.573C50.3409 15.573 50.5973 15.6014 50.8252 15.6299C51.0531 15.6584 51.2526 15.7153 51.395 15.7438L51.1101 17.5943C50.8537 17.5374 50.6258 17.4804 50.3694 17.452C50.113 17.4235 49.8566 17.395 49.6287 17.395C49.1158 17.395 48.6885 17.5089 48.3751 17.7082C48.0617 17.9075 47.8338 18.1922 47.6629 18.5623V22.8897H45.8111V15.7153H47.5489L47.6344 16.8826C47.9193 16.484 48.2896 16.1424 48.6885 15.9146C49.0874 15.6868 49.5717 15.573 50.056 15.573Z" fill="#E8DFE0"/>
<path d="M54.7568 15.7153L54.8707 16.7117C55.1271 16.3416 55.4405 16.0854 55.8109 15.8861C56.1812 15.6868 56.5801 15.6014 57.0359 15.6014C57.4063 15.6014 57.7482 15.6584 58.033 15.7722C58.3179 15.8861 58.6028 16.0569 58.8308 16.2847C59.0587 16.5125 59.2296 16.8256 59.3436 17.1957C59.4575 17.5658 59.5145 18.0213 59.5145 18.5338V22.9751H57.6627V18.5053C57.6627 18.2206 57.6342 17.9929 57.5772 17.7936C57.5202 17.5943 57.4063 17.452 57.2923 17.3665C57.1784 17.2527 57.0359 17.1957 56.865 17.1388C56.694 17.0818 56.4946 17.0818 56.2952 17.0818C55.9818 17.0818 55.6969 17.1388 55.4975 17.2811C55.2981 17.4235 55.0986 17.5943 54.9562 17.7936V22.9181H53.1044V15.7153H54.7568Z" fill="#E8DFE0"/>
<path d="M65.8107 22.9181C65.7537 22.8327 65.7252 22.7189 65.6967 22.605C65.6683 22.4911 65.6398 22.3772 65.6113 22.2349C65.4973 22.3487 65.3834 22.4626 65.2694 22.548C65.1554 22.6334 64.9845 22.7189 64.8136 22.8043C64.6426 22.8897 64.4717 22.9466 64.2723 22.9751C64.0728 23.0036 63.8734 23.032 63.6455 23.032C63.2751 23.032 62.9333 22.9751 62.6199 22.8612C62.3065 22.7473 62.0501 22.605 61.8222 22.4057C61.5942 22.2064 61.4233 21.9786 61.3094 21.7224C61.1954 21.4662 61.1099 21.1815 61.1099 20.8683C61.1099 20.0996 61.3948 19.5302 61.9646 19.1032C62.5344 18.6762 63.3891 18.4769 64.5002 18.4769H65.5258V18.0498C65.5258 17.7082 65.4118 17.4235 65.1839 17.2242C64.956 17.0249 64.6426 16.911 64.2153 16.911C63.8449 16.911 63.56 16.9964 63.3891 17.1673C63.2182 17.3381 63.1327 17.5374 63.1327 17.8221H61.2809C61.2809 17.5089 61.3378 17.2242 61.4803 16.9395C61.6227 16.6548 61.8222 16.427 62.0786 16.1993C62.335 15.9715 62.6484 15.8292 63.0472 15.7153C63.4461 15.6014 63.8449 15.5445 64.3292 15.5445C64.7566 15.5445 65.1839 15.6014 65.5543 15.7153C65.9247 15.8292 66.2665 15.9715 66.5229 16.1993C66.7793 16.427 67.0073 16.6833 67.1782 16.9964C67.3491 17.3096 67.4061 17.6797 67.4061 18.1068V21.21C67.4061 21.6085 67.4346 21.9217 67.4916 22.1779C67.5486 22.4342 67.6055 22.6619 67.7195 22.8327V22.9466H65.8107V22.9181ZM64.0443 21.637C64.2438 21.637 64.4147 21.6085 64.5572 21.5801C64.6996 21.5516 64.8705 21.4662 64.9845 21.4092C65.0985 21.3523 65.2124 21.2669 65.3264 21.153C65.4403 21.0391 65.4973 20.9822 65.5543 20.8683V19.6157H64.6141C64.3292 19.6157 64.0728 19.6441 63.8734 19.7011C63.674 19.758 63.503 19.8434 63.3606 19.9288C63.2181 20.0142 63.1327 20.1566 63.0757 20.2989C63.0187 20.4413 62.9902 20.5836 62.9902 20.7544C62.9902 21.0107 63.0757 21.21 63.2466 21.3808C63.4176 21.5516 63.674 21.637 64.0443 21.637Z" fill="#E8DFE0"/>
<path d="M72.9046 13.9502V15.7153H75.6111V17.0819H72.9046V20.1851C72.9046 20.4413 72.9331 20.669 72.99 20.8399C73.047 21.0107 73.1325 21.153 73.2465 21.2669C73.3604 21.3808 73.5029 21.4377 73.6453 21.4947C73.7877 21.5516 73.9872 21.5516 74.1866 21.5516C74.329 21.5516 74.4715 21.5516 74.6139 21.5231C74.7564 21.4947 74.8988 21.4947 75.0413 21.4662C75.1837 21.4377 75.2977 21.4377 75.4117 21.4093C75.5256 21.3808 75.6396 21.3523 75.725 21.3523L75.896 22.6335C75.7535 22.7189 75.6111 22.7758 75.4401 22.8327C75.2692 22.8897 75.0698 22.9466 74.8988 22.9751C74.7279 23.0036 74.5 23.032 74.3006 23.0605C74.1011 23.089 73.8732 23.089 73.6738 23.089C73.2749 23.089 72.9046 23.032 72.5912 22.9182C72.2778 22.8043 71.9929 22.6619 71.765 22.4342C71.5371 22.2064 71.3661 21.9217 71.2237 21.5801C71.0813 21.2384 71.0243 20.8399 71.0243 20.3559V17.0819H69.3719V15.7153H71.0243V13.9502H72.9046Z" fill="#E8DFE0"/>
<path d="M78.2036 15.7163H82.1352V21.4387H84.1009V22.9476H78.2036V21.4387H80.2549V17.2252H78.2036V15.7163ZM80.1124 13.8658C80.1124 13.7234 80.1409 13.5811 80.1979 13.4672C80.2549 13.3533 80.3118 13.2394 80.4258 13.154C80.5397 13.0686 80.6252 13.0117 80.7677 12.9547C80.9101 12.8978 81.0526 12.8693 81.195 12.8693C81.5369 12.8693 81.7933 12.9547 81.9927 13.154C82.1921 13.3533 82.2776 13.5811 82.2776 13.8658C82.2776 14.1505 82.1921 14.3782 81.9927 14.5775C81.7933 14.7768 81.5369 14.8622 81.195 14.8622C81.0241 14.8622 80.8816 14.8337 80.7677 14.7768C80.6537 14.7199 80.5113 14.6629 80.4258 14.5775C80.3403 14.4921 80.2549 14.3782 80.1979 14.2643C80.1409 14.1505 80.1124 14.0081 80.1124 13.8658Z" fill="#E8DFE0"/>
<path d="M85.6679 19.2456C85.6679 18.7331 85.7534 18.2206 85.8958 17.7936C86.0383 17.3665 86.2662 16.968 86.5511 16.6263C86.836 16.2847 87.2063 16.0285 87.6337 15.8577C88.061 15.6868 88.5453 15.573 89.0866 15.573C89.6279 15.573 90.1123 15.6584 90.5396 15.8577C90.9669 16.0569 91.3088 16.3132 91.6222 16.6263C91.9356 16.9395 92.135 17.3381 92.2775 17.7936C92.4199 18.2491 92.5054 18.7331 92.5054 19.2456V19.3879C92.5054 19.9288 92.4199 20.4128 92.2775 20.8399C92.135 21.2669 91.9071 21.6655 91.6222 22.0071C91.3373 22.3488 90.9669 22.605 90.5396 22.7758C90.1123 22.9466 89.6279 23.0605 89.0866 23.0605C88.5453 23.0605 88.061 22.9751 87.6337 22.7758C87.2063 22.5765 86.836 22.3203 86.5511 22.0071C86.2662 21.694 86.0383 21.2954 85.8958 20.8399C85.7534 20.3843 85.6679 19.9004 85.6679 19.3879V19.2456ZM87.5197 19.3879C87.5197 19.7011 87.5482 19.9858 87.6052 20.242C87.6622 20.4982 87.7476 20.726 87.8901 20.9253C88.0325 21.1246 88.175 21.2669 88.3744 21.4093C88.5738 21.5516 88.8018 21.5801 89.0866 21.5801C89.3715 21.5801 89.5995 21.5231 89.7989 21.4093C89.9983 21.2954 90.1408 21.1246 90.2832 20.9253C90.4256 20.726 90.4826 20.4982 90.5396 20.242C90.5966 19.9858 90.6251 19.7011 90.6251 19.3879V19.2456C90.6251 18.9609 90.5966 18.6762 90.5396 18.4199C90.4826 18.1637 90.3972 17.9359 90.2832 17.7367C90.1692 17.5374 89.9983 17.3665 89.7989 17.2527C89.5995 17.1388 89.3715 17.0819 89.0866 17.0819C88.8018 17.0819 88.5738 17.1388 88.3744 17.2527C88.175 17.3665 88.004 17.5374 87.8901 17.7367C87.7761 17.9359 87.6622 18.1637 87.6052 18.4199C87.5482 18.6762 87.5197 18.9609 87.5197 19.2456V19.3879Z" fill="#E8DFE0"/>
<path d="M95.8101 15.7153L95.9241 16.7117C96.1805 16.3416 96.4939 16.0854 96.8642 15.8861C97.2346 15.6868 97.6335 15.6014 98.0893 15.6014C98.4597 15.6014 98.8015 15.6584 99.0864 15.7722C99.3713 15.8861 99.6562 16.0569 99.8841 16.2847C100.112 16.5125 100.283 16.8256 100.397 17.1957C100.511 17.5658 100.568 18.0213 100.568 18.5338V22.9751H98.7161V18.5053C98.7161 18.2206 98.6876 17.9929 98.6306 17.7936C98.5736 17.5943 98.4597 17.452 98.3457 17.3665C98.2317 17.2811 98.0893 17.1957 97.9184 17.1388C97.7474 17.0818 97.548 17.0818 97.3486 17.0818C97.0352 17.0818 96.7503 17.1388 96.5509 17.2811C96.3514 17.4235 96.152 17.5943 96.0096 17.7936V22.9181H94.1577V15.7153H95.8101Z" fill="#E8DFE0"/>
<path d="M106.836 22.9181C106.779 22.8327 106.75 22.7189 106.722 22.605C106.693 22.4911 106.665 22.3772 106.636 22.2349C106.522 22.3487 106.408 22.4626 106.294 22.548C106.18 22.6334 106.009 22.7189 105.838 22.8043C105.667 22.8897 105.497 22.9466 105.297 22.9751C105.098 23.0036 104.898 23.032 104.67 23.032C104.3 23.032 103.958 22.9751 103.645 22.8612C103.331 22.7473 103.075 22.605 102.847 22.4057C102.619 22.2064 102.448 21.9786 102.334 21.7224C102.22 21.4662 102.135 21.1815 102.135 20.8683C102.135 20.0996 102.42 19.5302 102.989 19.1032C103.559 18.6762 104.414 18.4769 105.525 18.4769H106.551V18.0498C106.551 17.7082 106.437 17.4235 106.209 17.2242C105.981 17.0249 105.667 16.911 105.24 16.911C104.87 16.911 104.585 16.9964 104.414 17.1673C104.243 17.3381 104.158 17.5374 104.158 17.8221H102.306C102.306 17.5089 102.363 17.2242 102.505 16.9395C102.648 16.6548 102.847 16.427 103.103 16.1993C103.36 15.9715 103.673 15.8292 104.072 15.7153C104.471 15.6014 104.87 15.5445 105.354 15.5445C105.781 15.5445 106.209 15.6014 106.579 15.7153C106.95 15.8292 107.291 15.9715 107.548 16.1993C107.804 16.427 108.032 16.6833 108.203 16.9964C108.374 17.3096 108.431 17.6797 108.431 18.1068V21.21C108.431 21.6085 108.459 21.9217 108.516 22.1779C108.573 22.4342 108.63 22.6619 108.744 22.8327V22.9466H106.836V22.9181ZM105.069 21.637C105.269 21.637 105.44 21.6085 105.582 21.5801C105.724 21.5516 105.895 21.4662 106.009 21.4092C106.152 21.3238 106.237 21.2669 106.351 21.153C106.437 21.0676 106.522 20.9822 106.579 20.8683V19.6157H105.639C105.354 19.6157 105.098 19.6441 104.898 19.7011C104.699 19.758 104.528 19.8434 104.385 19.9288C104.243 20.0142 104.158 20.1566 104.101 20.2989C104.044 20.4413 104.015 20.5836 104.015 20.7544C104.015 21.0107 104.101 21.21 104.272 21.3808C104.442 21.5516 104.699 21.637 105.069 21.637Z" fill="#E8DFE0"/>
<path d="M110.91 12.669H114.955V21.4092H117.035V22.9181H110.938V21.4092H113.103V14.2064H110.938V12.669H110.91Z" fill="#E8DFE0"/>
<path d="M11.9371 39.3167V29.6085H14.4441C15.0994 29.6085 15.6692 29.7224 16.2105 29.9502C16.7518 30.1779 17.1791 30.4911 17.5495 30.8612C17.9199 31.2313 18.2048 31.7153 18.4042 32.2847C18.6036 32.8541 18.7176 33.4235 18.7176 34.0783V34.8754C18.7176 35.5302 18.6036 36.1281 18.4042 36.669C18.2048 37.21 17.9199 37.6939 17.5495 38.0641C17.1791 38.4342 16.7518 38.7758 16.239 38.9751C15.7262 39.1744 15.1564 39.2883 14.5296 39.2883H11.9371V39.3167ZM13.8459 31.1459V37.8363H14.5581C14.9 37.8363 15.2134 37.7794 15.4983 37.637C15.7832 37.4947 16.0111 37.3238 16.2105 37.0676C16.4099 36.8114 16.5524 36.4982 16.6663 36.1566C16.7803 35.7865 16.8088 35.3879 16.8088 34.9324V34.1068C16.8088 33.6797 16.7518 33.2811 16.6663 32.911C16.5809 32.5409 16.4099 32.2562 16.2105 32C16.0111 31.7438 15.7547 31.5445 15.4698 31.4021C15.1849 31.2598 14.843 31.1744 14.4441 31.1744H13.8459V31.1459Z" fill="#E8DFE0"/>
<path d="M23.7602 39.4591C23.1904 39.4591 22.7061 39.3737 22.2503 39.1744C21.7945 39.0036 21.3956 38.7473 21.0822 38.4342C20.7688 38.121 20.5124 37.7509 20.3415 37.3238C20.1706 36.8968 20.0851 36.4413 20.0851 35.9573V35.7011C20.0851 35.1601 20.1706 34.6477 20.3415 34.1922C20.5124 33.7367 20.7688 33.3381 21.0822 33.0249C21.3956 32.7117 21.766 32.427 22.1933 32.2562C22.6206 32.0854 23.0765 31.9715 23.5893 31.9715C24.1021 31.9715 24.5864 32.0569 24.9853 32.2278C25.3841 32.3986 25.726 32.6263 26.0109 32.9395C26.2958 33.2527 26.4952 33.6228 26.6662 34.0498C26.8371 34.4769 26.8941 34.9609 26.8941 35.5018V36.2989H21.9369C21.9654 36.5552 22.0509 36.7544 22.1648 36.9822C22.2788 37.21 22.4212 37.3523 22.5922 37.4947C22.7631 37.637 22.9625 37.7509 23.1619 37.8363C23.3614 37.9217 23.6178 37.9502 23.8742 37.9502C24.0451 37.9502 24.2445 37.9217 24.4155 37.8932C24.5864 37.8648 24.7574 37.8078 24.9283 37.7224C25.0992 37.637 25.2417 37.5801 25.3841 37.4662C25.5266 37.3523 25.6405 37.2384 25.7545 37.0961L26.6946 38.0925C26.5807 38.2633 26.4382 38.4057 26.2388 38.5765C26.0394 38.7473 25.84 38.8612 25.5836 39.0036C25.3271 39.1459 25.0423 39.2313 24.7574 39.2883C24.4725 39.3452 24.1306 39.4591 23.7602 39.4591ZM23.5323 33.4804C23.3329 33.4804 23.1335 33.5089 22.9625 33.5943C22.7916 33.6797 22.6491 33.7651 22.5067 33.9075C22.3642 34.0498 22.2788 34.2206 22.1648 34.3915C22.0509 34.5623 22.0224 34.79 21.9654 35.0463H25.0138V34.9039C25.0138 34.7046 24.9568 34.5338 24.8998 34.363C24.8428 34.1922 24.7289 34.0498 24.6149 33.9075C24.501 33.7936 24.33 33.6797 24.1591 33.5943C23.9881 33.5089 23.7887 33.4804 23.5323 33.4804Z" fill="#E8DFE0"/>
<path d="M33.1332 37.3523C33.1332 37.2384 33.1048 37.153 33.0478 37.0676C32.9908 36.9822 32.9053 36.8968 32.7629 36.8399C32.6204 36.7829 32.4495 36.6975 32.2501 36.6406C32.0222 36.5836 31.7658 36.5267 31.4239 36.4413C30.9965 36.3559 30.6262 36.242 30.2558 36.1281C29.8854 36.0142 29.6006 35.8434 29.3441 35.6726C29.0877 35.5018 28.8883 35.274 28.7459 35.0463C28.6034 34.8185 28.5464 34.5338 28.5464 34.2206C28.5464 33.9359 28.6319 33.6512 28.7744 33.3665C28.9168 33.0818 29.1162 32.8541 29.4011 32.6548C29.686 32.4555 29.9994 32.2847 30.3698 32.1708C30.7401 32.0569 31.196 32 31.6518 32C32.1646 32 32.6204 32.0569 33.0193 32.1708C33.4181 32.2847 33.76 32.4555 34.0449 32.6548C34.3298 32.8541 34.5292 33.1103 34.6717 33.395C34.8141 33.6797 34.8996 33.9929 34.8996 34.3345H33.0478C33.0478 34.0498 32.9338 33.8221 32.7059 33.6228C32.478 33.4235 32.1361 33.3381 31.6803 33.3381C31.2529 33.3381 30.9111 33.4235 30.7116 33.5658C30.5122 33.7082 30.3698 33.9075 30.3698 34.1352C30.3698 34.2491 30.3983 34.3345 30.4267 34.4199C30.4552 34.5053 30.5407 34.5907 30.6547 34.6762C30.7686 34.7616 30.9111 34.8185 31.1105 34.8754C31.3099 34.9324 31.5663 34.9893 31.8512 35.0463C32.2786 35.1317 32.7059 35.2171 33.0763 35.331C33.4466 35.4448 33.76 35.5872 34.0449 35.758C34.3298 35.9288 34.5292 36.1566 34.6717 36.4128C34.8141 36.669 34.8996 36.9537 34.8996 37.3238C34.8996 37.637 34.8141 37.9502 34.6717 38.2064C34.5292 38.4626 34.3013 38.7189 34.0164 38.8897C33.7315 39.0605 33.3897 39.2313 32.9908 39.3452C32.5919 39.4591 32.1361 39.516 31.6518 39.516C31.1105 39.516 30.6262 39.4306 30.1988 39.2883C29.7715 39.1459 29.4296 38.9466 29.1447 38.7189C28.8598 38.4911 28.6604 38.2349 28.518 37.9502C28.3755 37.6655 28.29 37.3523 28.29 37.0676H30.0564C30.0564 37.2669 30.1134 37.4377 30.2273 37.5801C30.3413 37.7224 30.4552 37.8363 30.5977 37.9217C30.7401 38.0071 30.9111 38.0641 31.1105 38.121C31.3099 38.1779 31.4809 38.1779 31.7088 38.1779C32.1646 38.1779 32.5065 38.0925 32.7629 37.9502C33.0193 37.8078 33.1332 37.5801 33.1332 37.3523Z" fill="#E8DFE0"/>
<path d="M37.1788 32.1139H41.1103V37.8363H43.0761V39.3452H37.1788V37.8363H39.23V33.6512H37.1788V32.1139ZM39.0876 30.2633C39.0876 30.121 39.1161 29.9786 39.173 29.8648C39.23 29.7509 39.287 29.637 39.401 29.5516C39.4864 29.4662 39.6004 29.4093 39.7428 29.3523C39.8853 29.2954 40.0277 29.2669 40.1702 29.2669C40.512 29.2669 40.7684 29.3523 40.9679 29.5516C41.1673 29.7509 41.2528 29.9786 41.2528 30.2633C41.2528 30.548 41.1673 30.7758 40.9679 30.9751C40.7684 31.1744 40.512 31.2598 40.1702 31.2598C39.9992 31.2598 39.8568 31.2313 39.7428 31.1744C39.6289 31.1174 39.4864 31.0605 39.401 30.9751C39.3155 30.8897 39.23 30.7758 39.173 30.6619C39.1161 30.548 39.0876 30.4057 39.0876 30.2633Z" fill="#E8DFE0"/>
<path d="M44.7 35.6726C44.7 35.1317 44.757 34.6192 44.8994 34.1637C45.0419 33.7082 45.2413 33.3096 45.4977 32.9964C45.7541 32.6833 46.0675 32.427 46.4094 32.2562C46.7512 32.0854 47.1786 32 47.6344 32C48.0618 32 48.4321 32.0854 48.717 32.2278C49.0019 32.3701 49.2868 32.5694 49.4862 32.8256L49.5717 32.1423H51.2526V39.1174C51.2526 39.6014 51.1671 40.0569 50.9962 40.427C50.8252 40.7972 50.5973 41.1388 50.2839 41.395C49.9706 41.6512 49.6287 41.8505 49.2013 41.9929C48.774 42.1352 48.3182 42.1922 47.8054 42.1922C47.5774 42.1922 47.3495 42.1637 47.0931 42.1352C46.8367 42.1068 46.6088 42.0214 46.3524 41.9359C46.096 41.8505 45.8681 41.7367 45.6686 41.5658C45.4692 41.395 45.2698 41.2527 45.0989 41.0534L45.925 39.9146C46.153 40.1708 46.4379 40.3986 46.7228 40.5125C47.0076 40.6263 47.3495 40.7117 47.6914 40.7117C48.2042 40.7117 48.6315 40.5694 48.9164 40.2847C49.2013 40 49.3438 39.6014 49.3438 39.089V38.6619C49.1159 38.8897 48.8595 39.089 48.5746 39.2313C48.2897 39.3737 47.9478 39.4306 47.5489 39.4306C47.0931 39.4306 46.6943 39.3452 46.3239 39.1459C45.9535 38.9466 45.6686 38.7189 45.4122 38.3772C45.1558 38.0356 44.9564 37.6655 44.814 37.21C44.6715 36.7544 44.6145 36.2705 44.6145 35.758V35.6726H44.7ZM46.5518 35.8149C46.5518 36.1281 46.5803 36.4128 46.6373 36.669C46.6943 36.9253 46.7797 37.153 46.9222 37.3523C47.0646 37.5516 47.2071 37.694 47.4065 37.8078C47.6059 37.9217 47.8338 37.9786 48.0903 37.9786C48.4036 37.9786 48.6885 37.9217 48.888 37.7794C49.0874 37.637 49.2583 37.4947 49.4008 37.2669V34.2206C49.2868 33.9929 49.1159 33.8221 48.888 33.7082C48.66 33.5943 48.4036 33.5374 48.0903 33.5374C47.8338 33.5374 47.6059 33.5943 47.4065 33.7082C47.2071 33.8221 47.0646 33.9644 46.9222 34.1637C46.7797 34.363 46.6943 34.5907 46.6373 34.847C46.5803 35.1032 46.5518 35.3879 46.5518 35.7011V35.8149Z" fill="#E8DFE0"/>
<path d="M54.7568 32.1139L54.8707 33.1103C55.1271 32.7402 55.4405 32.484 55.8109 32.2847C56.1812 32.0854 56.5801 32 57.0359 32C57.4063 32 57.7482 32.0569 58.033 32.1708C58.3179 32.2847 58.6028 32.4555 58.8308 32.6833C59.0587 32.911 59.2296 33.2242 59.3436 33.5943C59.4575 33.9644 59.5145 34.4199 59.5145 34.9324V39.3737H57.6627V34.9609C57.6627 34.6762 57.6342 34.4484 57.5772 34.2491C57.5202 34.0498 57.4063 33.9075 57.2923 33.8221C57.1784 33.7082 57.0359 33.6512 56.865 33.5943C56.694 33.5374 56.4946 33.5374 56.2952 33.5374C55.9818 33.5374 55.6969 33.5943 55.4975 33.7367C55.2981 33.879 55.0986 34.0498 54.9562 34.2491V39.3737H53.1044V32.1423H54.7568V32.1139Z" fill="#E8DFE0"/>
<path d="M19.1164 47.5445H16.125V55.7438H14.2447V47.5445H11.2818V46.0071H19.1164V47.5445Z" fill="#E8DFE0"/>
<path d="M24.7858 55.7153C24.7289 55.6299 24.7004 55.516 24.6719 55.4021C24.6434 55.2883 24.6149 55.1744 24.5864 55.032C24.4725 55.1459 24.3585 55.2598 24.2445 55.3452C24.1021 55.4306 23.9597 55.516 23.7887 55.6014C23.6178 55.6868 23.4468 55.7438 23.2474 55.7722C23.048 55.8007 22.8486 55.8292 22.6206 55.8292C22.2503 55.8292 21.9084 55.7722 21.595 55.6584C21.2816 55.5445 21.0252 55.4021 20.7973 55.2028C20.5694 55.0036 20.3985 54.7758 20.2845 54.5196C20.1706 54.2633 20.0851 53.9786 20.0851 53.6655C20.0851 52.8968 20.37 52.3274 20.9398 51.9003C21.5096 51.4733 22.3642 51.274 23.4753 51.274H24.501V50.847C24.501 50.5053 24.387 50.2206 24.1591 50.0213C23.9312 49.8221 23.6178 49.7082 23.1904 49.7082C22.8201 49.7082 22.5352 49.7936 22.3642 49.9644C22.1933 50.1352 22.1078 50.3345 22.1078 50.6192H20.256C20.256 50.306 20.313 50.0213 20.4554 49.7366C20.5979 49.4519 20.7973 49.2242 21.0537 48.9964C21.3101 48.7687 21.6235 48.6263 22.0224 48.5124C22.4212 48.3986 22.8201 48.3416 23.3044 48.3416C23.7317 48.3416 24.1591 48.3986 24.5294 48.5124C24.8998 48.6263 25.2417 48.7687 25.4981 48.9964C25.7545 49.2242 25.9824 49.4804 26.1533 49.7936C26.2958 50.1068 26.3813 50.4769 26.3813 50.9039V54.0071C26.3813 54.4057 26.4097 54.7189 26.4667 54.9751C26.5237 55.2313 26.5807 55.4591 26.6946 55.6299V55.7438H24.7858V55.7153ZM22.991 54.4342C23.1904 54.4342 23.3614 54.4057 23.5038 54.3772C23.6463 54.3487 23.8172 54.2633 23.9312 54.2064C24.0451 54.1495 24.1591 54.0641 24.273 53.9502C24.3585 53.8648 24.444 53.7794 24.501 53.6655V52.4128H23.5608C23.2759 52.4128 23.0195 52.4413 22.8201 52.4982C22.6206 52.5552 22.4497 52.6406 22.3073 52.726C22.1648 52.8114 22.0793 52.9537 22.0224 53.0961C21.9654 53.2384 21.9369 53.3808 21.9369 53.5516C21.9369 53.8078 22.0224 54.0071 22.1933 54.1779C22.3642 54.3487 22.6491 54.4342 22.991 54.4342Z" fill="#E8DFE0"/>
<path d="M28.8598 45.4662H32.9053V54.2064H34.9851V55.7153H28.8883V54.2064H31.0535V46.9751H28.8883V45.4662H28.8598Z" fill="#E8DFE0"/>
<path d="M39.401 52.7544L38.5463 53.5231V55.7153H36.6945V45.4662H38.5463V51.331L39.1161 50.6762L41.1103 48.484H43.3325L40.5975 51.5018L43.7029 55.7153H41.4237L39.401 52.7544Z" fill="#E8DFE0"/>
</svg>
